<?xml version="1.0" encoding="utf-8"?>
<!-- Generator: Adobe Illustrator 18.1.1, SVG Export Plug-In . SVG Version: 6.00 Build 0)  -->
<svg version="1.1"
	 id="Ebene_1" xmlns:cc="http://creativecommons.org/ns#" xmlns:dc="http://purl.org/dc/elements/1.1/" xmlns:rdf="http://www.w3.org/1999/02/22-rdf-syntax-ns#" xmlns:inkscape="http://www.inkscape.org/namespaces/inkscape" xmlns:svg="http://www.w3.org/2000/svg" xmlns:sodipodi="http://sodipodi.sourceforge.net/DTD/sodipodi-0.dtd" sodipodi:docname="edelpaper_icon_grau.svg" inkscape:version="0.48.5 r10040"
	 xmlns="http://www.w3.org/2000/svg" xmlns:xlink="http://www.w3.org/1999/xlink" x="0px" y="0px" viewBox="120.3 217 340.8 341"
	 enable-background="new 120.3 217 340.8 341" xml:space="preserve">
<sodipodi:namedview  inkscape:cx="45.557672" bordercolor="#666666" pagecolor="#ffffff" inkscape:zoom="5.1552784" guidetolerance="10" showgrid="false" inkscape:cy="73.774498" objecttolerance="10" gridtolerance="10" borderopacity="1" id="namedview53" inkscape:current-layer="Ebene_1" inkscape:window-maximized="0" inkscape:window-y="24" inkscape:window-x="824" inkscape:window-height="1096" inkscape:window-width="1090" inkscape:pageshadow="2" inkscape:pageopacity="0">
	</sodipodi:namedview>
<rect id="rect3" x="-179.3" y="329.9" display="none" fill="#333333" width="708.7" height="236.7"/>
<g id="g5" transform="translate(0,-27.548997)" display="none">
	<path id="path7" inkscape:connector-curvature="0" display="inline" fill="#B2B2B2" d="M-83.7,521.8c-5.5,0-10.2-1.1-14.2-3.2
		c-4-2.1-7.2-4.9-9.7-8.4c-2.5-3.5-4.4-7.6-5.6-12.1c-1.2-4.5-1.8-9.3-1.8-14.3c0-5,0.6-9.9,1.8-14.5c1.2-4.6,3.1-8.6,5.7-12.1
		c2.6-3.5,5.9-6.2,9.9-8.3c4-2.1,8.8-3.1,14.4-3.1c8.6,0,15.6,3.1,21.2,9.3c2.7,3.1,4.9,6.5,6.6,10.4c1.7,3.9,2.5,8.2,2.5,13v9.5
		h-42.4c0.3,2.1,0.6,4.2,1,6.2c0.4,2,1.1,3.8,2,5.5c0.9,1.6,2.2,2.9,3.9,3.9c1.6,1,3.8,1.5,6.5,1.5c3.4,0,6.3-0.8,8.6-2.5
		c2.3-1.7,4.4-3.8,6.4-6.4l14.6,9.2c-2.2,3.3-4.4,6-6.6,8c-2.2,2.1-4.6,3.7-7.1,4.9C-70.8,520.6-76.7,521.8-83.7,521.8z
		 M-83.3,461.2c-2.1,0-3.8,0.3-5.2,0.9c-1.4,0.6-2.6,1.5-3.4,2.6c-0.9,1.1-1.6,2.5-2.1,4c-0.5,1.5-0.9,3.2-1.2,4.9h23.8
		c-0.3-3.7-1.4-6.7-3.4-8.9C-76.8,462.4-79.7,461.2-83.3,461.2z"/>
	<path id="path9" inkscape:connector-curvature="0" display="inline" fill="#B2B2B2" d="M1,514.5c-2.6,2.3-5.4,4-8.2,5.3
		c-2.9,1.3-6.1,2-9.6,2c-9.4,0-16.7-3.7-21.9-11.1c-5.1-7.1-7.7-16.7-7.7-28.6c0-10.2,2.7-18.7,8.2-25.7c5.7-7,12.7-10.5,21.2-10.5
		c2.8,0,5.6,0.5,8.4,1.6c2.8,1.1,5.3,2.5,7.5,4.3v-31.9h19.9v100.6H1.7L1,514.5z M-6.2,464.1c-2-1-4-1.5-6-1.5c-3,0-5.4,0.7-7.2,2
		c-1.8,1.3-3.3,3-4.4,5.1c-1.1,2.1-1.8,4.4-2.2,6.9c-0.4,2.5-0.5,4.9-0.5,7.2c0,2.3,0.2,4.7,0.5,7.3c0.4,2.5,1.1,4.8,2.2,6.9
		c1.1,2,2.5,3.7,4.4,5.1c1.8,1.3,4.2,2,7.2,2c2.5,0,4.6-0.5,6.2-1.5c1.6-1,3.3-2.3,5.1-3.9v-32C-2.5,466.2-4.3,465-6.2,464.1z"/>
	<path id="path11" inkscape:connector-curvature="0" display="inline" fill="#B2B2B2" d="M59,521.8c-5.5,0-10.2-1.1-14.2-3.2
		c-4-2.1-7.2-4.9-9.7-8.4c-2.5-3.5-4.4-7.6-5.6-12.1c-1.2-4.5-1.8-9.3-1.8-14.3c0-5,0.6-9.9,1.8-14.5c1.2-4.6,3.1-8.6,5.7-12.1
		c2.6-3.5,5.9-6.2,9.9-8.3c4-2.1,8.8-3.1,14.4-3.1c8.6,0,15.6,3.1,21.2,9.3c2.7,3.1,4.9,6.5,6.6,10.4c1.7,3.9,2.5,8.2,2.5,13v9.5
		H47.4c0.3,2.1,0.6,4.2,1,6.2c0.4,2,1.1,3.8,2,5.5c0.9,1.6,2.2,2.9,3.9,3.9c1.6,1,3.8,1.5,6.5,1.5c3.4,0,6.3-0.8,8.6-2.5
		c2.3-1.7,4.4-3.8,6.4-6.4l14.6,9.2c-2.2,3.3-4.3,6-6.6,8c-2.2,2.1-4.6,3.7-7.1,4.9C72,520.6,66.1,521.8,59,521.8L59,521.8z
		 M59.4,461.2c-2.1,0-3.8,0.3-5.2,0.9c-1.4,0.6-2.5,1.5-3.5,2.6c-0.9,1.1-1.6,2.5-2.1,4c-0.5,1.5-0.9,3.2-1.2,4.9h23.8
		c-0.3-3.7-1.4-6.7-3.4-8.9C65.9,462.4,63,461.2,59.4,461.2L59.4,461.2z"/>
	<path id="path13" inkscape:connector-curvature="0" display="inline" fill="#B2B2B2" d="M102.4,419.9h19.9v100.6h-19.9V419.9z"/>
</g>
<g id="g15" transform="translate(0,-27.548997)" display="none">
	<path id="path17" inkscape:connector-curvature="0" display="inline" fill="#F6F6F6" d="M171.5,521.8c-2.9,0-5.7-0.5-8.5-1.6
		c-2.8-1.1-5.3-2.6-7.4-4.5v30.4h-19.9v-98.9h19.1v4.7c2.4-1.9,5-3.4,7.7-4.5c2.7-1.1,5.6-1.6,8.8-1.6c9.4,0,16.7,3.7,21.9,11.1
		c5.2,7.2,7.8,16.7,7.8,28.5c0,10.3-2.8,18.9-8.4,25.8C187,518.3,180,521.8,171.5,521.8L171.5,521.8z M167.2,462.6
		c-2.6,0-4.7,0.5-6.4,1.4c-1.7,0.9-3.4,2.2-5.2,3.9v32c1.5,1.3,3.2,2.5,5.2,3.5c1.9,1,4,1.5,6.1,1.5c3,0,5.4-0.7,7.2-2
		c1.8-1.3,3.3-3,4.3-5.1c1-2.1,1.7-4.4,2.1-6.9c0.4-2.5,0.6-4.9,0.6-7.2c0-3.5-0.3-6.5-0.9-9.1c-0.6-2.6-1.6-4.9-2.8-6.7
		C175.1,464.4,171.7,462.6,167.2,462.6z"/>
	<path id="path19" inkscape:connector-curvature="0" display="inline" fill="#F6F6F6" d="M248.6,515.4c-3.4,2.2-6.8,3.8-10.1,4.8
		c-3.3,1-7,1.6-11,1.6c-3,0-5.7-0.5-8.2-1.5c-2.5-1-4.6-2.4-6.4-4.2c-1.8-1.8-3.2-3.9-4.2-6.3c-1-2.4-1.5-5.1-1.5-8.1
		c0-7.5,2.7-13.5,8.1-18c3.9-3.1,8.1-5.3,12.5-6.6c4.5-1.4,9-2.5,13.7-3.4c1.7-0.4,3.7-0.6,6-0.8v-4.2c0-2.6-0.9-4.5-2.6-5.7
		c-1.7-1.2-3.8-1.8-6.2-1.8c-3.7,0-6.6,0.8-8.9,2.5c-2.2,1.7-4.3,3.9-6.2,6.8l-13.2-10c3.2-5,7.2-8.8,12.1-11.2
		c4.9-2.4,10.3-3.6,16.1-3.6c10.3,0,17.6,2.4,22,7.2c4.4,4.8,6.6,12.3,6.6,22.4V510c0,2.4,0.2,4.4,0.5,6c0.2,0.5,0,1-0.7,1.5v3
		h-17.6L248.6,515.4z M241.3,488.3c-2.3,0.5-4.6,1.2-6.7,2.1c-2.1,0.9-3.9,2.1-5.4,3.6c-1.5,1.5-2.2,3.4-2.2,5.7
		c0,2,0.6,3.6,1.7,4.8c1.1,1.2,2.7,1.8,4.8,1.8c2.4,0,4.9-0.7,7.5-2.2c2.6-1.5,4.8-3,6.6-4.4v-12.7
		C245.7,487.4,243.7,487.8,241.3,488.3L241.3,488.3z"/>
	<path id="path21" inkscape:connector-curvature="0" display="inline" fill="#F6F6F6" d="M314.2,521.8c-2.9,0-5.7-0.5-8.5-1.6
		c-2.8-1.1-5.3-2.6-7.4-4.5v30.4h-19.9v-98.9h19.1v4.7c2.4-1.9,5-3.4,7.7-4.5c2.7-1.1,5.6-1.6,8.8-1.6c9.4,0,16.7,3.7,21.9,11.1
		c5.2,7.2,7.8,16.7,7.8,28.5c0,10.3-2.8,18.9-8.4,25.8C329.7,518.3,322.7,521.8,314.2,521.8L314.2,521.8z M309.9,462.6
		c-2.6,0-4.7,0.5-6.4,1.4c-1.7,0.9-3.4,2.2-5.2,3.9v32c1.5,1.3,3.2,2.5,5.2,3.6c1.9,1,4,1.5,6.1,1.5c3,0,5.4-0.7,7.2-2
		c1.8-1.3,3.3-3,4.3-5.1c1-2.1,1.8-4.4,2.1-6.9c0.4-2.5,0.6-4.9,0.6-7.2c0-3.5-0.3-6.5-0.9-9.1c-0.6-2.6-1.6-4.9-2.8-6.7
		C317.9,464.4,314.5,462.6,309.9,462.6z"/>
	<path id="path23" inkscape:connector-curvature="0" display="inline" fill="#F6F6F6" d="M382,521.8c-5.5,0-10.2-1.1-14.2-3.2
		c-4-2.1-7.2-4.9-9.7-8.4c-2.5-3.5-4.4-7.6-5.6-12.1c-1.2-4.5-1.8-9.3-1.8-14.3c0-5,0.6-9.9,1.8-14.5c1.2-4.6,3.1-8.6,5.7-12.1
		c2.6-3.5,5.9-6.2,9.9-8.3c4-2.1,8.8-3.1,14.4-3.1c8.6,0,15.6,3.1,21.2,9.3c2.7,3.1,4.9,6.5,6.6,10.4c1.7,3.9,2.5,8.2,2.5,13v9.5
		h-42.4c0.3,2.1,0.6,4.2,1,6.2c0.4,2,1.1,3.8,2,5.5c0.9,1.6,2.2,2.9,3.9,3.9c1.6,1,3.8,1.5,6.5,1.5c3.4,0,6.3-0.8,8.6-2.5
		c2.3-1.7,4.4-3.8,6.4-6.4l14.6,9.2c-2.2,3.3-4.4,6-6.6,8c-2.2,2.1-4.6,3.7-7.1,4.9C395,520.6,389.1,521.8,382,521.8L382,521.8z
		 M382.4,461.2c-2.1,0-3.8,0.3-5.2,0.9c-1.4,0.6-2.5,1.5-3.4,2.6c-0.9,1.1-1.6,2.5-2.1,4c-0.5,1.5-0.9,3.2-1.2,4.9h23.8
		c-0.3-3.7-1.4-6.7-3.4-8.9C388.9,462.4,386,461.2,382.4,461.2L382.4,461.2z"/>
	<path id="path25" inkscape:connector-curvature="0" display="inline" fill="#F6F6F6" d="M448,469.9c-2.8,2.3-4.6,4.4-5.5,6.4v44.2
		h-19.9v-73.3h18.5v8.4c2.4-3.6,5.3-6.1,8.6-7.6c3.3-1.4,7.1-2.2,11.4-2.2v20.8l-4.1-0.3C454.1,466.3,451,467.5,448,469.9L448,469.9
		z"/>
</g>
<polygon id="polygon27" display="none" fill="#DEDC00" points="479.5,371 485.2,382.6 497.9,384.4 488.7,393.4 490.9,406.1 
	479.5,400.1 468.1,406.1 470.3,393.4 461.1,384.4 473.8,382.6 "/>
<path fill="#4B90F6" d="M382.9,558H199c-43,0-78.2-35.2-78.2-78.2V295.2c0-43,35.2-78.2,78.2-78.2h183.9c43,0,78.2,35.2,78.2,78.2
	v184.6C461.1,522.8,425.9,558,382.9,558z"/>
<g id="g3772" inkscape:export-xdpi="72" inkscape:export-ydpi="72">
	<g id="g2997" inkscape:export-xdpi="72" inkscape:export-ydpi="72">
		<g id="g29" transform="translate(20.949402,-15.328512)">
			<path id="path31" inkscape:connector-curvature="0" fill="#FFFFFF" d="M241.1,538.3c-15.5,0-28.8-3-40-8.9
				c-11.2-6-20.3-14-27.5-23.8c-7.1-10-12.4-21.3-15.8-34.2c-3.4-12.8-5.1-26.2-5.1-40.2c0-14.2,1.7-27.8,5.1-40.8
				c3.4-13,8.8-24.3,16.2-34.1c7.4-9.8,16.7-17.6,28-23.5c11.3-5.8,24.9-8.8,40.6-8.8c24.2,0,44.1,8.8,59.9,26.3
				c7.6,8.6,13.8,18.4,18.5,29.4c4.7,10.9,7.1,23.1,7.1,36.6V443H208.3c0.8,6,1.7,11.9,2.9,17.6c1.1,5.7,3,10.9,5.7,15.4
				c2.7,4.5,6.3,8.1,10.9,10.9c4.6,2.7,10.7,4.1,18.3,4.1c9.7,0,17.7-2.4,24.2-7.1c6.5-4.7,12.5-10.7,18.1-18.1l41.2,25.9
				c-6.1,9.3-12.3,16.9-18.5,22.7c-6.2,5.8-12.9,10.4-20,13.7C277.6,535,260.9,538.3,241.1,538.3L241.1,538.3z M242.2,367.5
				c-5.9,0-10.7,0.9-14.7,2.7c-3.9,1.8-7.2,4.3-9.7,7.4c-2.5,3.2-4.5,6.9-5.9,11.2c-1.4,4.3-2.5,8.9-3.2,13.7h67.1
				c-0.8-10.4-3.9-18.8-9.5-25.2C260.4,370.8,252.4,367.5,242.2,367.5z"/>
		</g>
		<polygon id="polygon51" fill="#FFFFFF" points="413.2,342.6 381,325.7 348.9,342.6 355.1,306.8 329.1,281.5 365,276.3 381,243.7 
			397.1,276.3 433,281.5 407,306.8 		"/>
	</g>
	<path id="path3002" inkscape:connector-curvature="0" fill="#FFFFFF" stroke="#000000" stroke-width="0.28" stroke-opacity="0" d="
		M121.7,549.5c0,0.2,0.2,0.5,0,0.5C121.5,550.1,121.8,549.4,121.7,549.5c-0.2,0.2-0.1,0.5-0.2,0.8c0,0-0.1,0-0.2,0
		c0,0-0.5,0.4-0.5,0.4c0,0,0.1,0.1,0,0.1s0-0.2,0-0.1c0,0.1,0.1,0.2,0,0.3c-0.1,0.1-0.2,0-0.4,0c-0.1,0,0,0.1,0,0.1c0,0,0.1,0,0.2,0
		s0.1,0,0.2,0c0,0,0-0.1,0-0.1c0-0.1,0.1-0.1,0.2-0.1s0.1-0.1,0.2-0.1c0.1-0.1,0.2-0.1,0.4-0.1c0.1,0,0.1,0,0.2,0c0,0,0-0.1,0-0.1
		c0,0,0-0.1,0-0.1"/>
</g>
</svg>
